<svg xmlns="http://www.w3.org/2000/svg" xmlns:xlink="http://www.w3.org/1999/xlink" width="13.797" height="14.809" viewBox="0 0 13.797 14.809">
  <defs>
    <filter id="Path_5" x="0" y="0" width="13.797" height="14.809" filterUnits="userSpaceOnUse">
      <feOffset dx="1" dy="2" input="SourceAlpha"/>
      <feGaussianBlur result="blur"/>
      <feFlood flood-opacity="0.161"/>
      <feComposite operator="in" in2="blur"/>
      <feComposite in="SourceGraphic"/>
    </filter>
  </defs>
  <g transform="matrix(1, 0, 0, 1, 0, 0)" filter="url(#Path_5)">
    <path id="Path_5-2" data-name="Path 5" d="M13.934-5.895l-.012.445v.41q0,.363-.012.457h-.047q-.2.012-.562.012H10.148l-.914-.012Q9.281-3.41,9.281-.82v.586q0,.387-.891.387L7.371.141H6.785a6.368,6.368,0,0,0-.891.023L5.836-4.359l-.328.012h-1.2l-.258-.012L3.8-4.348H2.2l-.457-.012H1.313q-.176-.105-.176-.879l.012-.176v-.809l-.012-.387v-.75a1.149,1.149,0,0,1,.07-.5q.07-.117.363-.117Q3.094-7.98,5.719-8v-.773l.035-2.988v-.387a.666.666,0,0,1,.076-.387q.076-.094.381-.094l.223.012H7.711l.7-.023q.785,0,.914.141L9.293-7.9l4.535-.023q.105.047.105.6Z" transform="translate(-1.14 12.64)" fill="#fff"/>
  </g>
</svg>
