<svg xmlns="http://www.w3.org/2000/svg" width="40" height="1021.856" viewBox="0 0 40 1021.856">
  <path id="Union_2" data-name="Union 2" d="M-760.931,1021.81l-9.069.008V0l9.167.09V0s18.867,8.324,29.395,16.55A3.887,3.887,0,0,1-730,19.619a3.9,3.9,0,0,1-1.439,3.068L-751.83,38.618a4.554,4.554,0,0,0-1.684,3.591A4.555,4.555,0,0,0-751.83,45.8c7.216,5.64,20.391,15.934,20.391,15.934A3.887,3.887,0,0,1-730,64.8a3.9,3.9,0,0,1-1.439,3.069l-19.124,14.94a4.554,4.554,0,0,0-1.683,3.591,4.549,4.549,0,0,0,1.683,3.591c6.9,5.388,19.124,14.943,19.124,14.943A3.888,3.888,0,0,1-730,108.007a3.9,3.9,0,0,1-1.439,3.068l-20.391,15.931a4.554,4.554,0,0,0-1.684,3.591,4.551,4.551,0,0,0,1.684,3.591c7.216,5.64,20.391,15.934,20.391,15.934A3.887,3.887,0,0,1-730,153.191a3.9,3.9,0,0,1-1.439,3.069s-12.727,9.944-19.793,15.462a4.562,4.562,0,0,0-1.684,3.593,4.553,4.553,0,0,0,1.684,3.591l19.7,15.388a3.893,3.893,0,0,1,1.438,3.069,3.89,3.89,0,0,1-1.438,3.068l-20.391,15.933a4.553,4.553,0,0,0-1.684,3.591,4.553,4.553,0,0,0,1.684,3.591l20.391,15.933a3.891,3.891,0,0,1,1.438,3.068,3.893,3.893,0,0,1-1.438,3.069l-19.124,14.942a4.553,4.553,0,0,0-1.684,3.591,4.553,4.553,0,0,0,1.684,3.591l19.124,14.942a3.89,3.89,0,0,1,1.438,3.068,3.894,3.894,0,0,1-1.438,3.069l-20.391,15.932a4.552,4.552,0,0,0-1.684,3.591,4.553,4.553,0,0,0,1.684,3.591l20.391,15.932a3.892,3.892,0,0,1,1.438,3.069A3.891,3.891,0,0,1-731.537,334l-19.682,15.378a4.552,4.552,0,0,0-1.683,3.591,4.552,4.552,0,0,0,1.683,3.591l19.682,15.378a3.891,3.891,0,0,1,1.438,3.068,3.89,3.89,0,0,1-1.438,3.068l-20.391,15.933a4.553,4.553,0,0,0-1.684,3.591,4.553,4.553,0,0,0,1.684,3.591l20.391,15.932a3.893,3.893,0,0,1,1.438,3.069,3.891,3.891,0,0,1-1.438,3.068l-19.124,14.942a4.553,4.553,0,0,0-1.684,3.591,4.553,4.553,0,0,0,1.684,3.591l19.124,14.942A3.892,3.892,0,0,1-730.1,463.4a3.893,3.893,0,0,1-1.438,3.069L-751.928,482.4a4.553,4.553,0,0,0-1.684,3.591,4.553,4.553,0,0,0,1.684,3.591l20.391,15.933a3.507,3.507,0,0,1,.383.348A3.937,3.937,0,0,1-730,508.682a3.9,3.9,0,0,1-1.439,3.069l-20.391,15.93a4.555,4.555,0,0,0-1.684,3.591,4.554,4.554,0,0,0,1.684,3.591c7.216,5.641,20.391,15.934,20.391,15.934A3.888,3.888,0,0,1-730,553.867a3.9,3.9,0,0,1-1.439,3.068l-19.124,14.94a4.554,4.554,0,0,0-1.683,3.591,4.548,4.548,0,0,0,1.683,3.591c6.9,5.388,19.124,14.944,19.124,14.944A3.886,3.886,0,0,1-730,597.07a3.9,3.9,0,0,1-1.439,3.069l-20.391,15.93a4.554,4.554,0,0,0-1.684,3.591,4.549,4.549,0,0,0,1.684,3.591c7.216,5.641,20.391,15.934,20.391,15.934A3.887,3.887,0,0,1-730,642.255a3.9,3.9,0,0,1-1.439,3.068s-12.727,9.944-19.793,15.462a4.562,4.562,0,0,0-1.684,3.593,4.553,4.553,0,0,0,1.684,3.591l19.7,15.388a3.89,3.89,0,0,1,1.438,3.068,3.893,3.893,0,0,1-1.438,3.069l-20.391,15.932a4.553,4.553,0,0,0-1.684,3.591,4.553,4.553,0,0,0,1.684,3.591l20.391,15.932a3.892,3.892,0,0,1,1.438,3.069,3.891,3.891,0,0,1-1.438,3.068l-19.124,14.942a4.554,4.554,0,0,0-1.684,3.591,4.553,4.553,0,0,0,1.684,3.591l19.124,14.942a3.892,3.892,0,0,1,1.438,3.069,3.891,3.891,0,0,1-1.438,3.068l-20.391,15.932a4.553,4.553,0,0,0-1.684,3.591A4.553,4.553,0,0,0-751.928,801l20.391,15.933A3.89,3.89,0,0,1-730.1,820a3.89,3.89,0,0,1-1.438,3.068l-19.682,15.378a4.552,4.552,0,0,0-1.683,3.591,4.552,4.552,0,0,0,1.683,3.591l19.682,15.378a3.893,3.893,0,0,1,1.438,3.069,3.893,3.893,0,0,1-1.438,3.069l-20.391,15.933a4.553,4.553,0,0,0-1.684,3.591,4.553,4.553,0,0,0,1.684,3.591l20.391,15.933a3.89,3.89,0,0,1,1.438,3.068,3.894,3.894,0,0,1-1.438,3.069l-19.124,14.942a4.553,4.553,0,0,0-1.684,3.591,4.553,4.553,0,0,0,1.684,3.591l19.124,14.942a3.893,3.893,0,0,1,1.438,3.069,3.891,3.891,0,0,1-1.438,3.068l-20.391,15.932a4.554,4.554,0,0,0-1.684,3.591,4.554,4.554,0,0,0,1.684,3.591l20.391,15.932a3.891,3.891,0,0,1,1.438,3.068,3.892,3.892,0,0,1-1.438,3.069l-29.281,21.053v.042h-.054l-.059.046Zm5.005-23.589c0,1.914,2.026,3.466,4.525,3.466,3.483,0,7.994-2.126,9.781-3.046a.468.468,0,0,0,.251-.415.468.468,0,0,0-.251-.416c-1.787-.921-6.3-3.055-9.781-3.055C-753.9,994.755-755.926,996.307-755.926,998.22Zm0-45.846c0,1.914,2.026,3.465,4.525,3.465,3.483,0,7.994-2.126,9.781-3.045a.468.468,0,0,0,.251-.415.468.468,0,0,0-.251-.415c-1.787-.922-6.3-3.055-9.781-3.055C-753.9,948.91-755.926,950.461-755.926,952.375Zm0-43.4c0,1.914,2.026,3.465,4.525,3.465,3.483,0,7.994-2.126,9.781-3.045a.469.469,0,0,0,.251-.416.468.468,0,0,0-.251-.415c-1.787-.921-6.3-3.054-9.781-3.054C-753.9,905.513-755.926,907.064-755.926,908.978Zm0-45.028c0,1.913,2.026,3.465,4.525,3.465,3.483,0,7.994-2.126,9.781-3.045a.468.468,0,0,0,.251-.416.469.469,0,0,0-.251-.416c-1.787-.921-6.3-3.054-9.781-3.054C-753.9,860.485-755.926,862.036-755.926,863.95Zm0-44.026c0,1.914,2.026,3.464,4.525,3.464,3.483,0,7.994-2.126,9.781-3.044a.469.469,0,0,0,.251-.416.468.468,0,0,0-.251-.416c-1.787-.921-6.3-3.055-9.781-3.055C-753.9,816.458-755.926,818.009-755.926,819.923Zm0-44.966c0,1.914,2.026,3.465,4.525,3.465,3.483,0,7.994-2.126,9.781-3.045a.468.468,0,0,0,.251-.415.469.469,0,0,0-.251-.416c-1.787-.921-6.3-3.054-9.781-3.054C-753.9,771.493-755.926,773.044-755.926,774.958Zm0-43.588c0,1.914,2.026,3.465,4.525,3.465,3.483,0,7.994-2.126,9.781-3.044a.469.469,0,0,0,.251-.415.467.467,0,0,0-.251-.416c-1.787-.921-6.3-3.055-9.781-3.055C-753.9,727.905-755.926,729.457-755.926,731.37Zm0-44.936c0,1.914,2.026,3.466,4.525,3.466,3.483,0,7.994-2.127,9.781-3.046a.467.467,0,0,0,.251-.415.468.468,0,0,0-.251-.416c-1.787-.921-6.3-3.055-9.781-3.055C-753.9,682.969-755.926,684.52-755.926,686.434Zm0-44.285c0,1.916,2.026,3.465,4.525,3.465,3.483,0,7.994-2.125,9.781-3.044a.47.47,0,0,0,.251-.414.471.471,0,0,0-.251-.418c-1.787-.922-6.3-3.055-9.781-3.055C-753.9,638.685-755.926,640.237-755.926,642.15Zm0-45.63c0,1.916,2.026,3.468,4.525,3.468,3.483,0,7.994-2.129,9.781-3.047a.467.467,0,0,0,.251-.414.472.472,0,0,0-.251-.418c-1.787-.918-6.3-3.054-9.781-3.054C-753.9,593.054-755.926,594.606-755.926,596.519Zm0-43.279c0,1.917,2.026,3.469,4.525,3.469,3.483,0,7.994-2.129,9.781-3.047a.467.467,0,0,0,.251-.414.471.471,0,0,0-.251-.418c-1.787-.918-6.3-3.054-9.781-3.054C-753.9,549.775-755.926,551.328-755.926,553.24Zm4.525-40.618c3.483,0,7.994-2.126,9.781-3.045a.468.468,0,0,0,.244-.333.467.467,0,0,0-.243-.332c-1.787-.922-6.3-3.054-9.781-3.054-2.463,0-4.466,1.5-4.523,3.382C-755.867,511.116-753.864,512.622-751.4,512.622Zm-4.525-49.311c0,1.914,2.026,3.465,4.525,3.465,3.483,0,7.994-2.126,9.781-3.045a.468.468,0,0,0,.251-.416.467.467,0,0,0-.251-.415c-1.787-.922-6.3-3.055-9.781-3.055C-753.9,459.846-755.926,461.4-755.926,463.311Zm0-43.4c0,1.913,2.026,3.465,4.525,3.465,3.483,0,7.994-2.126,9.781-3.045a.469.469,0,0,0,.251-.416.468.468,0,0,0-.251-.415c-1.787-.921-6.3-3.055-9.781-3.055C-753.9,416.449-755.926,418-755.926,419.914Zm0-45.028c0,1.913,2.026,3.465,4.525,3.465,3.483,0,7.994-2.126,9.781-3.045a.469.469,0,0,0,.251-.416.468.468,0,0,0-.251-.416c-1.787-.921-6.3-3.055-9.781-3.055C-753.9,371.421-755.926,372.972-755.926,374.886Zm0-44.027c0,1.914,2.026,3.465,4.525,3.465,3.483,0,7.994-2.126,9.781-3.045a.468.468,0,0,0,.251-.415.467.467,0,0,0-.251-.416c-1.787-.921-6.3-3.055-9.781-3.055C-753.9,327.394-755.926,328.946-755.926,330.859Zm0-44.966c0,1.914,2.026,3.466,4.525,3.466,3.483,0,7.994-2.126,9.781-3.046a.467.467,0,0,0,.251-.415.468.468,0,0,0-.251-.416c-1.787-.921-6.3-3.055-9.781-3.055C-753.9,282.429-755.926,283.98-755.926,285.894Zm0-43.587c0,1.914,2.026,3.465,4.525,3.465,3.483,0,7.994-2.126,9.781-3.045a.468.468,0,0,0,.251-.415.467.467,0,0,0-.251-.416c-1.787-.921-6.3-3.055-9.781-3.055C-753.9,238.842-755.926,240.393-755.926,242.307Zm0-44.936c0,1.913,2.026,3.465,4.525,3.465,3.483,0,7.994-2.126,9.781-3.045a.469.469,0,0,0,.251-.416.469.469,0,0,0-.251-.416c-1.787-.921-6.3-3.054-9.781-3.054C-753.9,193.906-755.926,195.457-755.926,197.371Zm0-44.285c0,1.916,2.026,3.465,4.525,3.465,3.483,0,7.994-2.126,9.781-3.044a.47.47,0,0,0,.251-.414.471.471,0,0,0-.251-.417c-1.787-.923-6.3-3.055-9.781-3.055C-753.9,149.621-755.926,151.173-755.926,153.086Zm0-45.631c0,1.916,2.026,3.469,4.525,3.469,3.483,0,7.994-2.129,9.781-3.048a.466.466,0,0,0,.251-.414.471.471,0,0,0-.251-.418c-1.787-.918-6.3-3.055-9.781-3.055C-753.9,103.99-755.926,105.543-755.926,107.455Zm0-43.279c0,1.916,2.026,3.468,4.525,3.468,3.483,0,7.994-2.128,9.781-3.047a.466.466,0,0,0,.251-.414.471.471,0,0,0-.251-.417c-1.787-.919-6.3-3.055-9.781-3.055C-753.9,60.711-755.926,62.264-755.926,64.176Zm0-43.917c0,1.913,2.026,3.465,4.525,3.465,3.483,0,7.994-2.125,9.781-3.047a.463.463,0,0,0,.251-.414.465.465,0,0,0-.251-.414c-1.787-.922-6.3-3.055-9.781-3.055C-753.9,16.795-755.926,18.344-755.926,20.26Zm23.817,963.821-5.372-4.7a5.777,5.777,0,0,1-1.973-4.347,5.778,5.778,0,0,1,1.973-4.348l5.372-4.7a.715.715,0,0,1,.766-.112.714.714,0,0,1,.419.65v17.022a.714.714,0,0,1-.419.65.714.714,0,0,1-.295.064A.717.717,0,0,1-732.109,984.081Zm0-44.514-5.372-4.7a5.776,5.776,0,0,1-1.973-4.347,5.778,5.778,0,0,1,1.973-4.348l5.372-4.7a.713.713,0,0,1,.766-.113.714.714,0,0,1,.419.65V939.03a.715.715,0,0,1-.419.65.713.713,0,0,1-.295.064A.717.717,0,0,1-732.109,939.567Zm0-44.3-5.372-4.7a5.778,5.778,0,0,1-1.973-4.348,5.777,5.777,0,0,1,1.973-4.347l5.372-4.7a.716.716,0,0,1,.766-.113.714.714,0,0,1,.419.65v17.022a.714.714,0,0,1-.419.65.712.712,0,0,1-.3.064A.716.716,0,0,1-732.109,895.265Zm0-44.23-5.372-4.7a5.779,5.779,0,0,1-1.973-4.348,5.777,5.777,0,0,1,1.973-4.347l5.372-4.7a.715.715,0,0,1,.766-.113.714.714,0,0,1,.419.65V850.5a.714.714,0,0,1-.419.65.714.714,0,0,1-.295.064A.717.717,0,0,1-732.109,851.036Zm0-44.757-5.372-4.7a5.778,5.778,0,0,1-1.973-4.347,5.778,5.778,0,0,1,1.973-4.348l5.372-4.7a.715.715,0,0,1,.766-.112.714.714,0,0,1,.419.65v17.021a.714.714,0,0,1-.419.65.709.709,0,0,1-.3.064A.715.715,0,0,1-732.109,806.279Zm0-43.928-5.372-4.7a5.777,5.777,0,0,1-1.973-4.347,5.777,5.777,0,0,1,1.973-4.348l5.372-4.7a.716.716,0,0,1,.766-.113.715.715,0,0,1,.419.651v17.021a.714.714,0,0,1-.419.65.71.71,0,0,1-.3.064A.715.715,0,0,1-732.109,762.351Zm0-43.975-5.372-4.7a5.777,5.777,0,0,1-1.973-4.347,5.778,5.778,0,0,1,1.973-4.348l5.372-4.7a.714.714,0,0,1,.766-.113.714.714,0,0,1,.419.65v17.021a.714.714,0,0,1-.419.65.713.713,0,0,1-.295.064A.717.717,0,0,1-732.109,718.376Zm0-44.767-5.372-4.7a5.777,5.777,0,0,1-1.973-4.348,5.782,5.782,0,0,1,1.973-4.348l5.372-4.7a.718.718,0,0,1,.766-.112.714.714,0,0,1,.419.649v17.022a.714.714,0,0,1-.419.651.713.713,0,0,1-.295.064A.717.717,0,0,1-732.109,673.609Zm0-44.714c-1.275-1.117-3.387-2.964-5.372-4.7a5.772,5.772,0,0,1-1.973-4.348,5.783,5.783,0,0,1,1.973-4.347l5.372-4.7a.718.718,0,0,1,.766-.112.714.714,0,0,1,.419.649v17.022a.714.714,0,0,1-.419.652.716.716,0,0,1-.3.064A.717.717,0,0,1-732.109,628.9Zm0-44.32c-1.275-1.113-3.387-2.964-5.372-4.7a5.772,5.772,0,0,1-1.973-4.347,5.784,5.784,0,0,1,1.973-4.348l5.372-4.7a.717.717,0,0,1,.766-.111.709.709,0,0,1,.419.648v17.022a.714.714,0,0,1-.419.652.712.712,0,0,1-.295.064A.711.711,0,0,1-732.109,584.576Zm0-44.273c-1.275-1.113-3.387-2.964-5.372-4.7a5.771,5.771,0,0,1-1.973-4.347,5.782,5.782,0,0,1,1.973-4.347l5.372-4.7a.718.718,0,0,1,.766-.112.71.71,0,0,1,.419.649v17.022a.716.716,0,0,1-.419.652.716.716,0,0,1-.294.063A.71.71,0,0,1-732.109,540.3Zm0-45.284-5.372-4.7a5.778,5.778,0,0,1-1.973-4.348,5.778,5.778,0,0,1,1.973-4.347l5.372-4.7a.715.715,0,0,1,.766-.112.714.714,0,0,1,.419.65V494.48a.714.714,0,0,1-.419.65.712.712,0,0,1-.3.064A.716.716,0,0,1-732.109,495.018Zm0-44.515-5.372-4.7a5.778,5.778,0,0,1-1.973-4.348,5.778,5.778,0,0,1,1.973-4.347l5.372-4.7a.715.715,0,0,1,.766-.112.713.713,0,0,1,.419.65v17.021a.714.714,0,0,1-.419.65.715.715,0,0,1-.3.064A.715.715,0,0,1-732.109,450.5Zm0-44.3-5.372-4.7a5.779,5.779,0,0,1-1.973-4.348,5.778,5.778,0,0,1,1.973-4.348l5.372-4.7a.715.715,0,0,1,.766-.112.714.714,0,0,1,.419.65v17.022a.714.714,0,0,1-.419.65.713.713,0,0,1-.295.064A.717.717,0,0,1-732.109,406.2Zm0-44.229-5.372-4.7a5.778,5.778,0,0,1-1.973-4.348,5.778,5.778,0,0,1,1.973-4.347l5.372-4.7a.715.715,0,0,1,.766-.113.714.714,0,0,1,.419.65v17.021a.715.715,0,0,1-.419.651.713.713,0,0,1-.295.064A.717.717,0,0,1-732.109,361.972Zm0-44.757-5.372-4.7a5.778,5.778,0,0,1-1.973-4.348,5.777,5.777,0,0,1,1.973-4.347l5.372-4.7a.716.716,0,0,1,.766-.113.714.714,0,0,1,.419.65v17.021a.714.714,0,0,1-.419.65.711.711,0,0,1-.3.064A.715.715,0,0,1-732.109,317.216Zm0-43.928-5.372-4.7a5.776,5.776,0,0,1-1.973-4.347,5.776,5.776,0,0,1,1.973-4.347l5.372-4.7a.715.715,0,0,1,.766-.113.714.714,0,0,1,.419.65V272.75a.714.714,0,0,1-.419.65.715.715,0,0,1-.3.064A.715.715,0,0,1-732.109,273.288Zm0-43.975-5.372-4.7a5.778,5.778,0,0,1-1.973-4.348,5.778,5.778,0,0,1,1.973-4.347l5.372-4.7a.714.714,0,0,1,.766-.113.714.714,0,0,1,.419.65v17.021a.714.714,0,0,1-.419.65.711.711,0,0,1-.3.064A.716.716,0,0,1-732.109,229.312Zm0-44.767-5.372-4.7a5.778,5.778,0,0,1-1.973-4.348,5.78,5.78,0,0,1,1.973-4.348l5.372-4.7a.717.717,0,0,1,.766-.112.713.713,0,0,1,.419.649v17.022a.714.714,0,0,1-.419.65.711.711,0,0,1-.3.064A.715.715,0,0,1-732.109,184.545Zm0-44.714c-1.275-1.117-3.387-2.964-5.372-4.7a5.771,5.771,0,0,1-1.973-4.347,5.782,5.782,0,0,1,1.973-4.347l5.372-4.7a.717.717,0,0,1,.766-.112.714.714,0,0,1,.419.649v17.022a.716.716,0,0,1-.419.652.719.719,0,0,1-.3.064A.716.716,0,0,1-732.109,139.832Zm0-44.32c-1.275-1.113-3.387-2.964-5.372-4.7a5.771,5.771,0,0,1-1.973-4.347,5.783,5.783,0,0,1,1.973-4.347l5.372-4.7a.718.718,0,0,1,.766-.112.71.71,0,0,1,.419.649V94.975a.715.715,0,0,1-.419.652.716.716,0,0,1-.294.063A.71.71,0,0,1-732.109,95.512Zm0-44.273c-1.275-1.113-3.387-2.964-5.372-4.7a5.771,5.771,0,0,1-1.973-4.347,5.782,5.782,0,0,1,1.973-4.347l5.372-4.7a.717.717,0,0,1,.766-.112.709.709,0,0,1,.419.648V50.7a.714.714,0,0,1-.419.652.714.714,0,0,1-.3.064A.709.709,0,0,1-732.109,51.239Z" transform="translate(770)" fill="#ae6a5a"/>
</svg>
