<svg id="Group_36" data-name="Group 36" xmlns="http://www.w3.org/2000/svg" width="82.344" height="84" viewBox="0 0 82.344 84">
  <g id="Group_32" data-name="Group 32" transform="matrix(0.966, -0.259, 0.259, 0.966, 0, 14.491)">
    <path id="Path_269" data-name="Path 269" d="M55.983,8a8,8,0,0,0-8-8L8,0A7.994,7.994,0,0,0,0,7.994L.007,63.96a8,8,0,0,0,8,8l39.988,0a7.994,7.994,0,0,0,8-7.994C55.988,50.123,55.985,21.845,55.983,8Z" transform="translate(0 0)" fill="#5c310c" fill-rule="evenodd"/>
    <path id="Path_270" data-name="Path 270" d="M26.859,14.957C23.433,28.636,2.8,28.032.2,14.157A13.269,13.269,0,0,1,7.2.25c1.525-.7,1,.216.532.991A8.97,8.97,0,0,0,6.5,6.048c.436,8.486,13.611,8.856,14.555.433a8.98,8.98,0,0,0-.934-4.873c-.42-.8-.89-1.749.59-.957A13.275,13.275,0,0,1,26.859,14.957Zm-13.182-.041c-.184-.233-.126-.214-.331.017-2.32,2.595-3.177,4.384-.428,7.175.419.426.312.424.756.026C16.607,19.5,15.85,17.661,13.677,14.916ZM4.057,7.168a8.922,8.922,0,0,0-.562,1.2c.346.657.924.407,1.3.132-.031-.12-.059-.242-.08-.365C4.608,7.517,4.734,5.984,4.057,7.168ZM2.821,11.621a10.068,10.068,0,0,0,.135,2.115c.062.362-.007.383.308.259a6.172,6.172,0,0,0,3.156-2.569c.122-.215.093-.157-.082-.339a7.435,7.435,0,0,1-.676-.8c-.14-.194-.112-.178-.359-.232A2.221,2.221,0,0,0,3.04,11.063.665.665,0,0,0,2.821,11.621ZM3.935,16.7c.078.154.058.1.207-.013a4.624,4.624,0,0,1,5.547-.164q.194.113.392.245c.319.211.237.255.372-.075a6.537,6.537,0,0,1,1.333-2.015c.263-.277.291-.182-.068-.313a18.094,18.094,0,0,1-3.009-1.438c-.372-.224-.266-.2-.689-.046-1.48.55-3.7,1.679-4.109,3.584C3.883,16.6,3.876,16.582,3.935,16.7Zm1.327,2.07c.158.2.1.15.341.105.991-.18,2.6-.018,3.205,2.653.04.179,0,.153.166.231a8.387,8.387,0,0,0,1.821.616c.38.08.3.1.122-.208a6.953,6.953,0,0,1-.878-3.639c.015-.274.067-.216-.172-.36-1.2-.733-3.406-1.672-4.7.24-.086.128-.109.108-.022.22ZM23.43,7.747c-.6-1.222-.571.315-.718.927-.029.122-.064.243-.1.36.363.3.923.583,1.31-.052A8.893,8.893,0,0,0,23.43,7.747Zm.966,4.52a.665.665,0,0,0-.185-.57,2.223,2.223,0,0,0-2.2-1.148c-.25.038-.222.024-.373.21a7.47,7.47,0,0,1-.724.761c-.186.171-.211.112-.1.334a6.178,6.178,0,0,0,3,2.756c.307.143.239.117.323-.24A9.989,9.989,0,0,0,24.4,12.267Zm-1.418,5c.067-.116.058-.1.038-.234-.288-1.927-2.441-3.189-3.885-3.827-.413-.183-.306-.2-.691,0a18.051,18.051,0,0,1-3.09,1.252c-.367.109-.332.016-.086.309a6.526,6.526,0,0,1,1.209,2.093c.115.338.035.289.367.1,2.93-1.694,4.936-.609,5.934.28C22.913,17.37,22.89,17.419,22.977,17.27Zm-1.328,1.85c.093-.106.069-.088-.009-.221-1.173-1.987-3.428-1.183-4.674-.524-.246.13-.191.075-.193.349a6.951,6.951,0,0,1-1.1,3.579c-.193.3-.275.271.109.215a8.34,8.34,0,0,0,1.855-.5c.17-.068.129-.044.18-.22.762-2.63,2.381-2.693,3.358-2.453.241.059.178.1.348-.085Z" transform="translate(14.393 23.564)" fill="rgba(190,126,91,0.75)" fill-rule="evenodd"/>
    <path id="Path_271" data-name="Path 271" d="M6.873,4.977a.127.127,0,0,0-.124-.205C3.924,5.387,1.722,3.934.243.081A.125.125,0,0,0,0,.125C0,1.386,0,4.637,0,12.4a6,6,0,0,0,6,6c3,0,4.17-2.944,3.043-4.206a1.493,1.493,0,0,0-2.256-.14.2.2,0,0,0,.2.315A.619.619,0,0,1,7.478,15.5c-1.014.729-2.545-.266-2.911-2.186A9.748,9.748,0,0,1,6.873,4.977Zm.381,9.11a1.127,1.127,0,0,1,.862.627,1.267,1.267,0,0,1,.014,1.012,2.058,2.058,0,0,1-1.447.95,6.523,6.523,0,0,1-5.507-1.833,5.052,5.052,0,0,0,5.46,3.1,2.71,2.71,0,0,0,2.482-2.688,1.31,1.31,0,0,0-1.864-1.169ZM5.287,6.171C2.619,9.794,3.372,15.376,5.9,16.324,3.543,16.437.671,15.357.839,9.4ZM.765,3.056a4.925,4.925,0,0,0,4.593,2.6L.778,7.565Z" transform="translate(3.005 50.561)" fill="#a66a46" fill-rule="evenodd"/>
    <path id="Path_272" data-name="Path 272" d="M2.589,4.975a.126.126,0,0,1,.124-.205c2.825.615,5.026-.837,6.5-4.69A.125.125,0,0,1,9.46.125c0,1.26,0,4.512,0,12.276a6,6,0,0,1-6,6c-3,0-4.171-2.945-3.044-4.207a1.493,1.493,0,0,1,2.256-.139.2.2,0,0,1-.2.315A.619.619,0,0,0,1.987,15.5c1.014.73,2.545-.266,2.911-2.186A9.751,9.751,0,0,0,2.589,4.975Zm-.378,9.11a1.126,1.126,0,0,0-.862.627,1.267,1.267,0,0,0-.014,1.012,2.059,2.059,0,0,0,1.448.95,6.521,6.521,0,0,0,5.507-1.832,5.05,5.05,0,0,1-5.459,3.1A2.712,2.712,0,0,1,.347,15.254a1.277,1.277,0,0,1,.482-1A1.275,1.275,0,0,1,2.211,14.085ZM4.175,6.17c2.67,3.624,1.918,9.206-.614,10.153,2.361.114,5.233-.966,5.063-6.92ZM8.7,3.055A4.923,4.923,0,0,1,4.1,5.652l4.58,1.913Z" transform="translate(43.534 50.567)" fill="#a66a46" fill-rule="evenodd"/>
    <path id="Path_273" data-name="Path 273" d="M6.874,13.425a.126.126,0,0,1-.124.205c-2.825-.615-5.026.837-6.5,4.69A.125.125,0,0,1,0,18.275C0,17.015,0,13.763,0,6A6,6,0,0,1,6,0c3,0,4.171,2.945,3.044,4.207a1.493,1.493,0,0,1-2.256.139.2.2,0,0,1,.2-.315A.619.619,0,0,0,7.476,2.9c-1.014-.73-2.545.266-2.911,2.186A9.751,9.751,0,0,0,6.874,13.425Zm.378-9.11a1.126,1.126,0,0,0,.862-.627,1.267,1.267,0,0,0,.014-1.012,2.059,2.059,0,0,0-1.448-.95A6.521,6.521,0,0,0,1.174,3.558,5.05,5.05,0,0,1,6.633.458,2.712,2.712,0,0,1,9.116,3.147,1.309,1.309,0,0,1,7.252,4.315ZM5.288,12.23C2.618,8.607,3.37,3.025,5.9,2.078,3.541,1.964.669,3.043.839,9ZM.766,15.345a4.923,4.923,0,0,1,4.592-2.6L.779,10.835Z" transform="translate(3 2.999)" fill="#a66a46" fill-rule="evenodd"/>
    <path id="Path_274" data-name="Path 274" d="M2.591,13.425a.127.127,0,0,0,.124.205c2.824-.615,5.026.838,6.506,4.691a.125.125,0,0,0,.242-.045c0-1.26,0-4.512,0-12.276a6,6,0,0,0-6-6C.466,0-.705,2.944.422,4.206a1.493,1.493,0,0,0,2.256.14.2.2,0,0,0-.2-.315A.619.619,0,0,1,1.987,2.9C3,2.167,4.531,3.163,4.9,5.083A9.748,9.748,0,0,1,2.591,13.425Zm-.381-9.11a1.127,1.127,0,0,1-.862-.627,1.268,1.268,0,0,1-.014-1.012,2.058,2.058,0,0,1,1.447-.95A6.523,6.523,0,0,1,8.289,3.559a5.052,5.052,0,0,0-5.46-3.1A2.71,2.71,0,0,0,.347,3.146a1.278,1.278,0,0,0,.483,1A1.275,1.275,0,0,0,2.211,4.315Zm1.966,7.916C6.846,8.607,6.093,3.025,3.56,2.078,5.921,1.964,8.793,3.044,8.625,9ZM8.7,15.346a4.925,4.925,0,0,0-4.593-2.6l4.579-1.911Z" transform="translate(43.527 2.999)" fill="#a66a46" fill-rule="evenodd"/>
    <path id="Path_275" data-name="Path 275" d="M.122,19.364a50.37,50.37,0,0,0,0-18.73L0,0,0,20Z" transform="translate(3.002 26.012)" fill="#a66a46" fill-rule="evenodd"/>
    <path id="Path_276" data-name="Path 276" d="M.877.634a50.37,50.37,0,0,0,0,18.73L1,20,1,0Z" transform="translate(51.976 26.018)" fill="#a66a46" fill-rule="evenodd"/>
    <path id="Path_277" data-name="Path 277" d="M.634.119a50.37,50.37,0,0,0,18.73,0L20,0,0,0Z" transform="translate(17.999 2.999)" fill="#a66a46" fill-rule="evenodd"/>
    <path id="Path_278" data-name="Path 278" d="M.634.877a50.37,50.37,0,0,1,18.73,0L20,1,0,1Z" transform="translate(18.007 67.963)" fill="#a66a46" fill-rule="evenodd"/>
  </g>
  <g id="Group_35" data-name="Group 35" transform="translate(26.35 6.022)">
    <path id="Path_269-2" data-name="Path 269" d="M55.994-64.005a8,8,0,0,0-8-7.995H8a8,8,0,0,0-8,7.995V-8.043A8,8,0,0,0,8-.049h40a8,8,0,0,0,8-7.995Z" transform="translate(0 72)" fill="#5c310c" fill-rule="evenodd"/>
    <path id="Path_270-2" data-name="Path 270" d="M41.253-33.494c-3.428,13.681-24.066,13.079-26.662-.8a13.274,13.274,0,0,1,7-13.91c1.526-.7,1,.216.532.991A8.973,8.973,0,0,0,20.895-42.4c.435,8.487,13.611,8.855,14.557.431a8.98,8.98,0,0,0-.933-4.874c-.42-.8-.89-1.749.591-.957A13.274,13.274,0,0,1,41.253-33.494Zm-13.184-.04c-.184-.233-.126-.214-.331.017-2.321,2.6-3.178,4.385-.429,7.176.419.426.312.424.756.026C31-28.947,30.243-30.789,28.069-33.534Zm-9.62-7.748a8.926,8.926,0,0,0-.562,1.2c.346.657.924.407,1.3.131-.031-.12-.059-.242-.08-.365C19-40.933,19.126-42.466,18.449-41.282Zm-1.237,4.454a10.069,10.069,0,0,0,.135,2.115c.062.362-.007.383.308.259a6.175,6.175,0,0,0,3.156-2.57c.122-.215.093-.157-.082-.339a7.432,7.432,0,0,1-.676-.8c-.14-.194-.112-.178-.359-.232a2.222,2.222,0,0,0-2.263,1.012A.666.666,0,0,0,17.212-36.828Zm1.114,5.081c.078.154.058.1.207-.013a4.624,4.624,0,0,1,5.548-.165q.194.113.392.245c.319.211.237.255.372-.075a6.54,6.54,0,0,1,1.334-2.016c.263-.277.291-.182-.068-.313A18.091,18.091,0,0,1,23.1-35.522c-.372-.224-.266-.2-.689-.046-1.481.55-3.705,1.679-4.11,3.585C18.274-31.849,18.267-31.867,18.326-31.747Zm1.327,2.07c.158.2.1.15.341.105.991-.18,2.6-.018,3.205,2.653.04.179,0,.153.166.231a8.386,8.386,0,0,0,1.821.616c.38.08.3.1.122-.208a6.952,6.952,0,0,1-.877-3.639c.015-.274.067-.216-.171-.36-1.2-.733-3.406-1.672-4.7.24-.086.128-.109.108-.022.22ZM37.824-40.705c-.6-1.223-.571.315-.718.928-.029.122-.064.243-.1.36.363.3.923.583,1.31-.052A8.892,8.892,0,0,0,37.824-40.705Zm.965,4.521a.665.665,0,0,0-.184-.571,2.223,2.223,0,0,0-2.2-1.147c-.25.038-.222.024-.373.21a7.474,7.474,0,0,1-.724.761c-.186.171-.211.112-.1.334a6.177,6.177,0,0,0,3,2.756c.307.143.239.117.323-.24A9.991,9.991,0,0,0,38.789-36.184Zm-1.419,5c.067-.116.058-.1.038-.234-.288-1.927-2.441-3.189-3.885-3.827-.413-.183-.306-.2-.691,0a18.057,18.057,0,0,1-3.091,1.253c-.367.109-.332.016-.086.309a6.525,6.525,0,0,1,1.209,2.093c.115.338.035.289.367.1,2.93-1.695,4.937-.609,5.935.279C37.306-31.08,37.283-31.031,37.37-31.18Zm-1.329,1.85c.093-.106.069-.088-.009-.221-1.172-1.987-3.429-1.183-4.674-.524-.246.13-.191.075-.193.349a6.954,6.954,0,0,1-1.1,3.58c-.193.3-.275.272.109.215a8.342,8.342,0,0,0,1.855-.5c.17-.068.129-.044.18-.22.763-2.63,2.381-2.693,3.359-2.454.241.059.178.1.348-.085Z" transform="translate(-0.002 71.977)" fill="rgba(190,126,91,0.75)" fill-rule="evenodd"/>
    <path id="Path_271-2" data-name="Path 271" d="M9.874-16.428a.126.126,0,0,0,.012-.147.127.127,0,0,0-.136-.058c-2.825.615-5.028-.838-6.506-4.691A.125.125,0,0,0,3.1-21.4a.125.125,0,0,0-.1.123C3-20.018,3-16.767,3-9A6,6,0,0,0,9-3c3,0,4.171-2.945,3.045-4.206a1.494,1.494,0,0,0-2.256-.14.2.2,0,0,0-.011.231.2.2,0,0,0,.216.084A.619.619,0,0,1,10.478-5.9c-1.014.73-2.545-.266-2.912-2.186A9.749,9.749,0,0,1,9.874-16.428Zm.38,9.11a1.127,1.127,0,0,1,.863.627,1.267,1.267,0,0,1,.014,1.012,2.059,2.059,0,0,1-1.448.95A6.524,6.524,0,0,1,4.175-6.561a5.052,5.052,0,0,0,5.461,3.1,2.712,2.712,0,0,0,2.483-2.689,1.278,1.278,0,0,0-.483-1A1.275,1.275,0,0,0,10.254-7.317ZM8.288-15.233C5.619-11.61,6.371-6.027,8.9-5.08,6.542-4.966,3.67-6.046,3.839-12ZM3.765-18.348a4.925,4.925,0,0,0,4.594,2.6L3.778-13.839Z" transform="translate(0 71.954)" fill="#a66a46" fill-rule="evenodd"/>
    <path id="Path_272-2" data-name="Path 272" d="M46.124-16.428a.126.126,0,0,1-.012-.147.127.127,0,0,1,.136-.058c2.825.615,5.028-.838,6.507-4.691a.125.125,0,0,1,.14-.078.125.125,0,0,1,.1.123c0,1.26,0,4.512,0,12.277a6,6,0,0,1-6,6c-3,0-4.171-2.945-3.044-4.206a1.493,1.493,0,0,1,2.256-.14.2.2,0,0,1,.011.231.2.2,0,0,1-.216.084A.619.619,0,0,0,45.521-5.9c1.014.73,2.545-.266,2.912-2.186A9.749,9.749,0,0,0,46.124-16.428Zm-.38,9.11a1.127,1.127,0,0,0-.862.627,1.267,1.267,0,0,0-.014,1.012,2.059,2.059,0,0,0,1.448.95,6.524,6.524,0,0,0,5.508-1.832,5.052,5.052,0,0,1-5.461,3.1A2.711,2.711,0,0,1,43.88-6.148a1.277,1.277,0,0,1,.483-1A1.275,1.275,0,0,1,45.745-7.317Zm1.966-7.916c2.67,3.624,1.917,9.206-.615,10.154,2.361.113,5.234-.966,5.065-6.921Zm4.523-3.115a4.925,4.925,0,0,1-4.594,2.6l4.581,1.912Z" transform="translate(-0.005 71.954)" fill="#a66a46" fill-rule="evenodd"/>
    <path id="Path_273-2" data-name="Path 273" d="M9.874-55.575a.126.126,0,0,1,.012.147.127.127,0,0,1-.136.058c-2.825-.615-5.028.838-6.506,4.691a.125.125,0,0,1-.14.078.125.125,0,0,1-.1-.123C3-51.984,3-55.236,3-63a6,6,0,0,1,6-6c3,0,4.171,2.945,3.045,4.206a1.493,1.493,0,0,1-2.256.14.2.2,0,0,1-.011-.231.2.2,0,0,1,.216-.084.619.619,0,0,0,.486-1.133c-1.014-.73-2.545.266-2.912,2.186A9.749,9.749,0,0,0,9.874-55.575Zm.38-9.11a1.127,1.127,0,0,0,.863-.627,1.267,1.267,0,0,0,.014-1.012,2.059,2.059,0,0,0-1.448-.95,6.524,6.524,0,0,0-5.508,1.832,5.052,5.052,0,0,1,5.461-3.1,2.712,2.712,0,0,1,2.483,2.689,1.278,1.278,0,0,1-.483,1A1.275,1.275,0,0,1,10.254-64.685ZM8.288-56.769c-2.67-3.624-1.917-9.206.615-10.154C6.542-67.036,3.67-65.956,3.839-60ZM3.765-53.654a4.925,4.925,0,0,1,4.594-2.6L3.778-58.164Z" transform="translate(0 72)" fill="#a66a46" fill-rule="evenodd"/>
    <path id="Path_274-2" data-name="Path 274" d="M46.124-55.575a.126.126,0,0,0-.012.147.127.127,0,0,0,.136.058c2.825-.615,5.028.838,6.507,4.691a.125.125,0,0,0,.14.078.125.125,0,0,0,.1-.123c0-1.26,0-4.512,0-12.277a6,6,0,0,0-6-6c-3,0-4.171,2.945-3.044,4.206a1.493,1.493,0,0,0,2.256.14.2.2,0,0,0,.011-.231.2.2,0,0,0-.216-.084.619.619,0,0,1-.486-1.133c1.014-.73,2.545.266,2.912,2.186A9.749,9.749,0,0,1,46.124-55.575Zm-.38-9.11a1.127,1.127,0,0,1-.862-.627,1.267,1.267,0,0,1-.014-1.012,2.059,2.059,0,0,1,1.448-.95,6.524,6.524,0,0,1,5.508,1.832,5.052,5.052,0,0,0-5.461-3.1,2.711,2.711,0,0,0-2.483,2.689,1.277,1.277,0,0,0,.483,1A1.275,1.275,0,0,0,45.745-64.685Zm1.966,7.916c2.67-3.624,1.917-9.206-.615-10.154,2.361-.113,5.234.966,5.065,6.921Zm4.523,3.115a4.925,4.925,0,0,0-4.594-2.6l4.581-1.912Z" transform="translate(-0.005 72)" fill="#a66a46" fill-rule="evenodd"/>
    <path id="Path_275-2" data-name="Path 275" d="M3.119-26.636a50.252,50.252,0,0,0,0-18.73L3-46v20Z" transform="translate(0 71.977)" fill="#a66a46" fill-rule="evenodd"/>
    <path id="Path_276-2" data-name="Path 276" d="M53.35-45.366a50.252,50.252,0,0,0,0,18.73l.119.634V-46Z" transform="translate(-0.495 71.977)" fill="#a66a46" fill-rule="evenodd"/>
    <path id="Path_277-2" data-name="Path 277" d="M18.634-68.881a50.252,50.252,0,0,0,18.73,0L38-69H18Z" transform="translate(-0.002 72)" fill="#a66a46" fill-rule="evenodd"/>
    <path id="Path_278-2" data-name="Path 278" d="M18.634-2.65a50.252,50.252,0,0,1,18.73,0L38-2.531H18Z" transform="translate(-0.002 71.482)" fill="#a66a46" fill-rule="evenodd"/>
  </g>
</svg>
